<svg width="24" height="24" viewBox="0 0 24 24" fill="none" xmlns="http://www.w3.org/2000/svg">
<g id="Icon/Outline/clipboard-list">
<path id="Icon" d="M9 4.99976H7C5.89543 4.99976 5 5.89519 5 6.99976V18.9998C5 20.1043 5.89543 20.9998 7 20.9998H17C18.1046 20.9998 19 20.1043 19 18.9998V6.99976C19 5.89519 18.1046 4.99976 17 4.99976H15M9 4.99976C9 6.10433 9.89543 6.99976 11 6.99976H13C14.1046 6.99976 15 6.10433 15 4.99976M9 4.99976C9 3.89519 9.89543 2.99976 11 2.99976H13C14.1046 2.99976 15 3.89519 15 4.99976M12 11.9998H15M12 15.9998H15M9 11.9998H9.01M9 15.9998H9.01" stroke="#4A708F" stroke-width="2" stroke-linecap="round"/>
</g>
</svg>
