<svg width="24" height="24" viewBox="0 0 24 24" fill="none" xmlns="http://www.w3.org/2000/svg">
<g id="Icon/Outline/clipboard-check">
<path id="Icon" d="M9.70711 13.2926C9.31658 12.9021 8.68342 12.9021 8.29289 13.2926C7.90237 13.6832 7.90237 14.3163 8.29289 14.7069L9.70711 13.2926ZM11 15.9998L10.2929 16.7069C10.6834 17.0974 11.3166 17.0974 11.7071 16.7069L11 15.9998ZM15.7071 12.7069C16.0976 12.3163 16.0976 11.6832 15.7071 11.2926C15.3166 10.9021 14.6834 10.9021 14.2929 11.2926L15.7071 12.7069ZM18 6.99976V18.9998H20V6.99976H18ZM17 19.9998H7V21.9998H17V19.9998ZM6 18.9998V6.99976H4V18.9998H6ZM7 5.99976H9V3.99976H7V5.99976ZM15 5.99976H17V3.99976H15V5.99976ZM7 19.9998C6.44772 19.9998 6 19.552 6 18.9998H4C4 20.6566 5.34315 21.9998 7 21.9998V19.9998ZM18 18.9998C18 19.552 17.5523 19.9998 17 19.9998V21.9998C18.6569 21.9998 20 20.6566 20 18.9998H18ZM20 6.99976C20 5.3429 18.6569 3.99976 17 3.99976V5.99976C17.5523 5.99976 18 6.44747 18 6.99976H20ZM6 6.99976C6 6.44747 6.44772 5.99976 7 5.99976V3.99976C5.34315 3.99976 4 5.3429 4 6.99976H6ZM8.29289 14.7069L10.2929 16.7069L11.7071 15.2926L9.70711 13.2926L8.29289 14.7069ZM11.7071 16.7069L15.7071 12.7069L14.2929 11.2926L10.2929 15.2926L11.7071 16.7069ZM11 3.99976H13V1.99976H11V3.99976ZM13 5.99976H11V7.99976H13V5.99976ZM11 5.99976C10.4477 5.99976 10 5.55204 10 4.99976H8C8 6.65661 9.34315 7.99976 11 7.99976V5.99976ZM14 4.99976C14 5.55204 13.5523 5.99976 13 5.99976V7.99976C14.6569 7.99976 16 6.65661 16 4.99976H14ZM13 3.99976C13.5523 3.99976 14 4.44747 14 4.99976H16C16 3.3429 14.6569 1.99976 13 1.99976V3.99976ZM11 1.99976C9.34315 1.99976 8 3.3429 8 4.99976H10C10 4.44747 10.4477 3.99976 11 3.99976V1.99976Z" fill="#4A708F"/>
</g>
</svg>
