<svg width="24" height="24" viewBox="0 0 24 24" fill="none" xmlns="http://www.w3.org/2000/svg">
<g id="Icon/Outline/identification">
<path id="Icon" d="M10 5.99976H5C3.89543 5.99976 3 6.89519 3 7.99976V16.9998C3 18.1043 3.89543 18.9998 5 18.9998H19C20.1046 18.9998 21 18.1043 21 16.9998V7.99976C21 6.89519 20.1046 5.99976 19 5.99976H14M10 5.99976V4.99976C10 3.89519 10.8954 2.99976 12 2.99976C13.1046 2.99976 14 3.89519 14 4.99976V5.99976M10 5.99976C10 7.10433 10.8954 7.99976 12 7.99976C13.1046 7.99976 14 7.10433 14 5.99976M9 13.9998C10.1046 13.9998 11 13.1043 11 11.9998C11 10.8952 10.1046 9.99976 9 9.99976C7.89543 9.99976 7 10.8952 7 11.9998C7 13.1043 7.89543 13.9998 9 13.9998ZM9 13.9998C10.3062 13.9998 11.4174 14.8346 11.8292 15.9998M9 13.9998C7.69378 13.9998 6.58249 14.8346 6.17065 15.9998M15 10.9998H18M15 14.9998H17" stroke="#4A708F" stroke-width="2" stroke-linecap="round" stroke-linejoin="round"/>
</g>
</svg>
