<svg width="24" height="24" viewBox="0 0 24 24" fill="none" xmlns="http://www.w3.org/2000/svg">
<g id="Icon/Outline/truck">
<path id="Icon" d="M13 15.9998V5.99976C13 5.44747 12.5523 4.99976 12 4.99976H4C3.44772 4.99976 3 5.44747 3 5.99976V15.9998C3 16.552 3.44772 16.9998 4 16.9998H5M13 15.9998C13 16.552 12.5523 16.9998 12 16.9998H9M13 15.9998L13 7.99976C13 7.44747 13.4477 6.99976 14 6.99976H16.5858C16.851 6.99976 17.1054 7.10511 17.2929 7.29265L20.7071 10.7069C20.8946 10.8944 21 11.1488 21 11.414V15.9998C21 16.552 20.5523 16.9998 20 16.9998H19M13 15.9998C13 16.552 13.4477 16.9998 14 16.9998H15M5 16.9998C5 18.1043 5.89543 18.9998 7 18.9998C8.10457 18.9998 9 18.1043 9 16.9998M5 16.9998C5 15.8952 5.89543 14.9998 7 14.9998C8.10457 14.9998 9 15.8952 9 16.9998M15 16.9998C15 18.1043 15.8954 18.9998 17 18.9998C18.1046 18.9998 19 18.1043 19 16.9998M15 16.9998C15 15.8952 15.8954 14.9998 17 14.9998C18.1046 14.9998 19 15.8952 19 16.9998" stroke="#4A708F" stroke-width="2"/>
</g>
</svg>
